<?xml version="1.0" encoding="UTF-8"?>
<svg id="Layer_1" xmlns="http://www.w3.org/2000/svg" xmlns:xlink="http://www.w3.org/1999/xlink" version="1.1" viewBox="0 0 960 1060">
  <!-- Generator: Adobe Illustrator 29.0.1, SVG Export Plug-In . SVG Version: 2.1.0 Build 192)  -->
  <defs>
    <style>
      .st0 {
        stroke: #37c8d3;
      }

      .st0, .st1, .st2, .st3, .st4, .st5, .st6, .st7, .st8, .st9, .st10, .st11, .st12, .st13, .st14, .st15, .st16, .st17 {
        fill: none;
        stroke-miterlimit: 10;
      }

      .st0, .st1, .st2, .st3, .st4, .st5, .st6, .st7, .st8, .st9, .st10, .st11, .st12, .st13, .st16, .st17 {
        stroke-width: 2px;
      }

      .st0, .st15, .st17 {
        stroke-dasharray: 4;
      }

      .st18 {
        fill: #4c9e5c;
      }

      .st18, .st19, .st20, .st21, .st22, .st23, .st24, .st25, .st26, .st27, .st28, .st29, .st30, .st31, .st32 {
        font-weight: 700;
      }

      .st18, .st33, .st30, .st31 {
        font-size: 12px;
      }

      .st18, .st31 {
        font-family: Poppins-Bold, Poppins;
      }

      .st34 {
        fill: #4a5b78;
      }

      .st34, .st19, .st20, .st21, .st35, .st36, .st37, .st24, .st25, .st26, .st27, .st28, .st38, .st30, .st32 {
        isolation: isolate;
      }

      .st34, .st35, .st37, .st38 {
        font-family: Helvetica, Helvetica;
      }

      .st34, .st38 {
        font-size: 14px;
      }

      .st39 {
        fill: #134bd8;
      }

      .st40 {
        fill: url(#linear-gradient3);
      }

      .st1, .st2, .st3 {
        stroke: #12db9d;
      }

      .st1, .st12 {
        stroke-dasharray: 4.1 4.1;
      }

      .st19, .st20, .st21, .st22, .st23, .st24, .st25, .st26, .st27, .st28, .st29, .st30, .st32 {
        font-family: Helvetica-Bold, Helvetica;
      }

      .st19, .st21, .st22, .st23, .st24, .st26, .st29 {
        fill: #112548;
      }

      .st19, .st37, .st25, .st32 {
        font-size: 11px;
      }

      .st20 {
        fill: #6a7a93;
        font-size: 13px;
        letter-spacing: 0em;
      }

      .st3, .st13 {
        stroke-dasharray: 4 4;
      }

      .st41 {
        fill: url(#linear-gradient6);
      }

      .st41, .st42, .st43, .st44, .st45, .st46, .st47, .st48, .st49, .st50, .st51 {
        stroke: #cbd7f3;
        stroke-width: 1.1px;
      }

      .st42 {
        fill: url(#linear-gradient4);
      }

      .st43 {
        fill: url(#linear-gradient5);
      }

      .st44 {
        fill: url(#linear-gradient7);
      }

      .st45 {
        fill: url(#linear-gradient8);
      }

      .st46 {
        fill: url(#linear-gradient1);
      }

      .st47 {
        fill: url(#linear-gradient2);
      }

      .st48 {
        fill: url(#linear-gradient9);
      }

      .st52 {
        fill: #f0f4ff;
        stroke: #d4def5;
        stroke-width: 1.2px;
      }

      .st21, .st23 {
        font-size: 16px;
      }

      .st4 {
        stroke-dasharray: 4 4;
      }

      .st4, .st7, .st8, .st10 {
        stroke: #134bd8;
      }

      .st22, .st24 {
        font-size: 18px;
      }

      .st5 {
        stroke: #2d3e98;
      }

      .st53 {
        fill: #37c8d3;
      }

      .st54 {
        font-size: 10px;
      }

      .st54, .st33, .st55 {
        font-family: MyriadPro-Regular, 'Myriad Pro';
      }

      .st56 {
        fill: url(#linear-gradient);
      }

      .st6 {
        stroke: #1b9621;
      }

      .st35 {
        fill: #4c5e7b;
        font-size: 15px;
      }

      .st7 {
        stroke-dasharray: 4.1 4.1;
      }

      .st37 {
        fill: #c9d8ff;
      }

      .st49, .st27 {
        fill: #fff;
      }

      .st8 {
        stroke-dasharray: 4 4;
      }

      .st55 {
        font-size: 8px;
      }

      .st9, .st11, .st12, .st13 {
        stroke: #d710dd;
      }

      .st50 {
        fill: url(#linear-gradient11);
      }

      .st51 {
        fill: url(#linear-gradient10);
      }

      .st57 {
        fill: #1b9621;
      }

      .st11 {
        stroke-dasharray: 4 4;
      }

      .st25, .st30 {
        fill: #596a88;
      }

      .st26, .st29 {
        font-size: 17px;
      }

      .st58 {
        fill: #12db9d;
      }

      .st59 {
        fill: #2d3e98;
      }

      .st27 {
        font-size: 20px;
      }

      .st28 {
        fill: #192b4e;
        font-size: 34px;
      }

      .st38 {
        fill: #e3ecff;
      }

      .st14 {
        stroke: #55b2ff;
        stroke-dasharray: 8;
      }

      .st60 {
        fill: #3977d1;
      }

      .st61 {
        fill: #d710dd;
      }

      .st31 {
        fill: #55b2ff;
      }

      .st15 {
        stroke: #4c9e5c;
      }

      .st32 {
        fill: #8798b4;
      }

      .st16 {
        stroke-dasharray: 4 4;
      }

      .st16, .st17 {
        stroke: #3977d1;
      }
    </style>
    <linearGradient id="linear-gradient" x1="182.3" y1="950" x2="182.3" y2="949" gradientTransform="translate(-174538 1006991.2) scale(960 -1060)" gradientUnits="userSpaceOnUse">
      <stop offset="0" stop-color="#fafbff"/>
      <stop offset="1" stop-color="#e6eeff"/>
    </linearGradient>
    <linearGradient id="linear-gradient1" x1="181.6" y1="951.3" x2="181.6" y2="950.3" gradientTransform="translate(-37928 104815.9) scale(210 -110)" gradientUnits="userSpaceOnUse">
      <stop offset="0" stop-color="#fff"/>
      <stop offset="1" stop-color="#f3f7ff"/>
    </linearGradient>
    <linearGradient id="linear-gradient2" x1="181.6" y1="951.3" x2="181.6" y2="950.3" gradientTransform="translate(-37663 104815.9) scale(210 -110)" gradientUnits="userSpaceOnUse">
      <stop offset="0" stop-color="#fff"/>
      <stop offset="1" stop-color="#f3f7ff"/>
    </linearGradient>
    <linearGradient id="linear-gradient3" x1="281" y1="790.9" x2="674.8" y2="397.1" gradientUnits="userSpaceOnUse">
      <stop offset="0" stop-color="#1f5de3"/>
      <stop offset="1" stop-color="#0c3e9f"/>
    </linearGradient>
    <linearGradient id="linear-gradient4" x1="181.6" y1="951.3" x2="181.6" y2="950.3" gradientTransform="translate(-37398 104815.9) scale(210 -110)" gradientUnits="userSpaceOnUse">
      <stop offset="0" stop-color="#fff"/>
      <stop offset="1" stop-color="#f3f7ff"/>
    </linearGradient>
    <linearGradient id="linear-gradient5" x1="181.1" y1="951.1" x2="181.1" y2="950.1" gradientTransform="translate(-43268 104995.9) scale(240 -110)" gradientUnits="userSpaceOnUse">
      <stop offset="0" stop-color="#fff"/>
      <stop offset="1" stop-color="#f3f7ff"/>
    </linearGradient>
    <linearGradient id="linear-gradient6" x1="182.2" y1="951.1" x2="182.2" y2="950.1" gradientTransform="translate(-42998 104995.9) scale(240 -110)" gradientUnits="userSpaceOnUse">
      <stop offset="0" stop-color="#fff"/>
      <stop offset="1" stop-color="#f3f7ff"/>
    </linearGradient>
    <linearGradient id="linear-gradient7" x1="181.6" y1="951.1" x2="181.6" y2="950.1" gradientTransform="translate(-37928 105335.9) scale(210 -110)" gradientUnits="userSpaceOnUse">
      <stop offset="0" stop-color="#fff"/>
      <stop offset="1" stop-color="#f3f7ff"/>
    </linearGradient>
    <linearGradient id="linear-gradient8" x1="181.6" y1="951.1" x2="181.6" y2="950.1" gradientTransform="translate(-37663 105335.9) scale(210 -110)" gradientUnits="userSpaceOnUse">
      <stop offset="0" stop-color="#fff"/>
      <stop offset="1" stop-color="#f3f7ff"/>
    </linearGradient>
    <linearGradient id="linear-gradient9" x1="181.6" y1="951.1" x2="181.6" y2="950.1" gradientTransform="translate(-37398 105335.9) scale(210 -110)" gradientUnits="userSpaceOnUse">
      <stop offset="0" stop-color="#fff"/>
      <stop offset="1" stop-color="#f3f7ff"/>
    </linearGradient>
    <linearGradient id="linear-gradient10" x1="181" y1="951.1" x2="181" y2="950.1" gradientTransform="translate(-41438 105515.9) scale(230 -110)" gradientUnits="userSpaceOnUse">
      <stop offset="0" stop-color="#fff"/>
      <stop offset="1" stop-color="#f3f7ff"/>
    </linearGradient>
    <linearGradient id="linear-gradient11" x1="181.1" y1="951.1" x2="181.1" y2="950.1" gradientTransform="translate(-41158 105515.9) scale(230 -110)" gradientUnits="userSpaceOnUse">
      <stop offset="0" stop-color="#fff"/>
      <stop offset="1" stop-color="#f3f7ff"/>
    </linearGradient>
  </defs>
  <rect class="st56" width="960" height="1060"/>
  <text class="st28" transform="translate(70 40)"><tspan x="0" y="0">EBT Instructor EndPoints / Touchpoints</tspan></text>
  <text class="st35" transform="translate(70 72)"><tspan x="0" y="0">SSO integrations, aeronautical data options, shared security services, and compliant data platforms supporting </tspan><tspan x="0" y="18">the iOS instructor experience.</tspan></text>
  <rect class="st52" x="60" y="147" width="840" height="150" rx="26" ry="26"/>
  <text class="st20" transform="translate(80 139)"><tspan x="0" y="0">IDENTITY &amp; ACCESS</tspan></text>
  <rect class="st52" x="60" y="357" width="840" height="150" rx="26" ry="26"/>
  <text class="st20" transform="translate(80 349)"><tspan x="0" y="0">AERONAUTICAL DATA</tspan></text>
  <rect class="st52" x="60" y="700" width="840" height="150" rx="26" ry="26"/>
  <text class="st20" transform="translate(80 692)"><tspan x="0" y="0">SECURITY &amp; SHARED SERVICES</tspan></text>
  <rect class="st52" x="60" y="880" width="840" height="150" rx="26" ry="26"/>
  <text class="st20" transform="translate(80 872)"><tspan x="0" y="0">DATA PLATFORMS &amp; HOSTING</tspan></text>
  <g>
    <rect class="st46" x="110" y="177" width="210" height="110" rx="18" ry="18"/>
    <g class="st36">
      <text class="st26" transform="translate(128 213)"><tspan x="0" y="0">Azure Active Directory</tspan></text>
      <text class="st29" transform="translate(309.7 213)"><tspan x="0" y="0"> </tspan></text>
      <text class="st30" transform="translate(128 233)"><tspan x="0" y="0">Enterprise SSO, </tspan><tspan x="0" y="14.4">Conditional Access, SCIM</tspan></text>
      <text class="st29" transform="translate(370.3 233)"><tspan x="0" y="0"> </tspan></text>
      <text class="st32" transform="translate(117 269)"><tspan x="0" y="0">MFA enforcement and device posture</tspan></text>
    </g>
  </g>
  <g>
    <rect class="st47" x="375" y="177" width="210" height="110" rx="18" ry="18"/>
    <g class="st36">
      <text class="st19" transform="translate(393 195)"><tspan x="0" y="0">Couchbase Capella OR</tspan><tspan x="0" y="13.2">Supabase (Managed)</tspan></text>
      <text class="st30" transform="translate(393.3 234)"><tspan x="0" y="0">OIDC federation with </tspan><tspan x="0" y="14.4">domain allowlists</tspan></text>
      <text class="st29" transform="translate(615 233)"><tspan x="0" y="0"> </tspan></text>
      <text class="st32" transform="translate(393 274)"><tspan x="0" y="0">Group-driven role provisioning</tspan></text>
      <text class="st33" transform="translate(343 235.9)"><tspan x="0" y="0">OR</tspan></text>
      <text class="st33" transform="translate(474.3 440.9)"><tspan x="0" y="0">OR</tspan></text>
    </g>
  </g>
  <rect class="st40" x="183.4" y="521.3" width="589" height="145.5" rx="24.1" ry="24.1"/>
  <g>
    <rect class="st42" x="640" y="177" width="210" height="110" rx="18" ry="18"/>
    <g class="st36">
      <text class="st26" transform="translate(658 213)"><tspan x="0" y="0">Apple Sign-In</tspan></text>
      <text class="st29" transform="translate(767.5 213)"><tspan x="0" y="0"> </tspan></text>
      <text class="st30" transform="translate(658 233)"><tspan x="0" y="0">Managed Apple IDs </tspan><tspan x="0" y="14.4">and BYOD policies</tspan></text>
      <text class="st29" transform="translate(878.9 233)"><tspan x="0" y="0"> </tspan></text>
      <text class="st32" transform="translate(658 269)"><tspan x="0" y="0">MDM attestation before access</tspan></text>
    </g>
  </g>
  <g>
    <rect class="st43" x="80" y="377" width="240" height="110" rx="18" ry="18"/>
    <g class="st36">
      <text class="st24" transform="translate(100 413)"><tspan x="0" y="0">Option A • Certified feeds</tspan></text>
      <text class="st22" transform="translate(466 413)"><tspan x="0" y="0"> </tspan></text>
      <text class="st30" transform="translate(100 433)"><tspan x="0" y="0">Jeppesen, Lido, </tspan><tspan x="0" y="14.4">NAVBLUE via API keys</tspan></text>
      <text class="st22" transform="translate(474.1 433)"><tspan x="0" y="0"> </tspan></text>
      <text class="st32" transform="translate(100 479)"><tspan x="0" y="0">Keys stored in enterprise secrets vault</tspan></text>
    </g>
  </g>
  <g>
    <rect class="st41" x="620" y="377" width="240" height="110" rx="18" ry="18"/>
    <g class="st36">
      <text class="st24" transform="translate(640 413)"><tspan x="0" y="0">Option B • </tspan><tspan x="0" y="21.6">Curated internal</tspan></text>
      <text class="st22" transform="translate(750.3 413)"><tspan x="0" y="0"> </tspan></text>
      <text class="st30" transform="translate(640 449)"><tspan x="0" y="0">Department-authored </tspan><tspan x="0" y="14.4">datasets and SOPs</tspan></text>
      <text class="st22" transform="translate(754.1 433)"><tspan x="0" y="0"> </tspan></text>
      <text class="st32" transform="translate(640 480)"><tspan x="0" y="0">Dual approval and tamper-evident logs</tspan></text>
    </g>
  </g>
  <g>
    <rect class="st44" x="110" y="720" width="210" height="110" rx="18" ry="18"/>
    <g class="st36">
      <text class="st26" transform="translate(128 756)"><tspan x="0" y="0">API Gateway &amp; WAF</tspan></text>
      <text class="st29" transform="translate(290.5 756)"><tspan x="0" y="0"> </tspan></text>
      <text class="st30" transform="translate(128 776)"><tspan x="0" y="0">mTLS termination, </tspan><tspan x="0" y="14.4">throttling, OWASP rules</tspan></text>
      <text class="st29" transform="translate(372.5 776)"><tspan x="0" y="0"> </tspan></text>
      <text class="st32" transform="translate(128 822)"><tspan x="0" y="0">Compliance with ISO 27001 A.13</tspan></text>
    </g>
  </g>
  <g>
    <rect class="st45" x="375" y="720" width="210" height="110" rx="18" ry="18"/>
    <g class="st36">
      <text class="st26" transform="translate(393 756)"><tspan x="0" y="0">Secrets Management</tspan></text>
      <text class="st29" transform="translate(563.1 756)"><tspan x="0" y="0"> </tspan></text>
      <text class="st30" transform="translate(393 776)"><tspan x="0" y="0">Azure Key Vault OR Apple Vault</tspan></text>
      <text class="st29" transform="translate(604.4 776)"><tspan x="0" y="0"> </tspan></text>
      <text class="st32" transform="translate(393 812)"><tspan x="0" y="0">Automated rotation, least privilege</tspan></text>
    </g>
  </g>
  <g>
    <rect class="st48" x="640" y="720" width="210" height="110" rx="18" ry="18"/>
    <g class="st36">
      <text class="st26" transform="translate(648 756)"><tspan x="0" y="0">Monitoring &amp; Response</tspan></text>
      <text class="st29" transform="translate(838.8 756)"><tspan x="0" y="0"> </tspan></text>
      <text class="st30" transform="translate(648 776)"><tspan x="0" y="0">SIEM correlation with 24/7 alerting</tspan></text>
      <text class="st29" transform="translate(843.4 776)"><tspan x="0" y="0"> </tspan></text>
      <text class="st32" transform="translate(648 792)"><tspan x="0" y="0">Incident runbooks per ISO 27001 A.16</tspan></text>
    </g>
  </g>
  <g>
    <rect class="st51" x="75" y="900" width="230" height="110" rx="18" ry="18"/>
    <g class="st36">
      <text class="st26" transform="translate(95 936)"><tspan x="0" y="0">Couchbase Cluster</tspan></text>
      <text class="st29" transform="translate(249.9 936)"><tspan x="0" y="0"> </tspan></text>
      <text class="st30" transform="translate(95 956)"><tspan x="0" y="0">Scenario content,</tspan><tspan x="0" y="14.4" xml:space="preserve"> instructor notes, analytics</tspan></text>
      <text class="st29" transform="translate(348.4 956)"><tspan x="0" y="0"> </tspan></text>
      <text class="st32" transform="translate(95 992)"><tspan x="0" y="0">Encryption at rest with replication</tspan></text>
    </g>
  </g>
  <g>
    <rect class="st50" x="375" y="900" width="230" height="110" rx="18" ry="18"/>
    <g class="st36">
      <text class="st26" transform="translate(395 936)"><tspan x="0" y="0">SkyDynamics Managed</tspan></text>
      <text class="st29" transform="translate(584 936)"><tspan x="0" y="0"> </tspan></text>
      <text class="st30" transform="translate(395 956)"><tspan x="0" y="0">ISO 27001, SOC 2, </tspan><tspan x="0" y="14.4">GDPR certified hosting</tspan></text>
      <text class="st29" transform="translate(633.1 956)"><tspan x="0" y="0"> </tspan></text>
      <text class="st32" transform="translate(395 992)"><tspan x="0" y="0">Operational support and resilience</tspan></text>
    </g>
  </g>
  <g>
    <rect class="st49" x="670" y="900" width="140" height="110" rx="18" ry="18"/>
    <g class="st36">
      <text class="st21" transform="translate(688 936)"><tspan x="0" y="0">Self-Hosted</tspan></text>
      <text class="st23" transform="translate(776.9 936)"><tspan x="0" y="0"> </tspan></text>
      <text class="st25" transform="translate(688 956)"><tspan x="0" y="0">Customer data </tspan><tspan x="0" y="13.2">center with consulting</tspan></text>
      <text class="st23" transform="translate(884.8 956)"><tspan x="0" y="0"> </tspan></text>
      <text class="st32" transform="translate(688 992)"><tspan x="0" y="0">Tailored </tspan><tspan x="0" y="13.2">compliance controls</tspan></text>
      <text class="st33" transform="translate(329.1 963.1)"><tspan x="0" y="0">AND</tspan></text>
      <text class="st33" transform="translate(633.1 964)"><tspan x="0" y="0">OR</tspan></text>
    </g>
  </g>
  <g>
    <text class="st27" transform="translate(410.6 575)"><tspan x="0" y="0">EBT Instructor</tspan></text>
    <text class="st38" transform="translate(420.5 605)"><tspan x="0" y="0">iOS Client Runtime</tspan></text>
    <text class="st37" transform="translate(354 633)"><tspan x="0" y="0">Secure workflows • assessment logic • offline cache</tspan></text>
  </g>
  <text class="st34" transform="translate(0 1046.9)"><tspan x="0" y="0">Controls mapped to ISO/IEC 27001 Annex A: access control (A.9), communications security (A.13), supplier relationships (A.15), and incident response (A.16).</tspan></text>
  <text class="st33" transform="translate(605 233.9)"><tspan x="0" y="0">OR</tspan></text>
  <g>
    <line class="st5" x1="169" y1="564.9" x2="17" y2="564.9"/>
    <polygon class="st59" points="166.1 554.9 183.4 564.9 166.1 574.9 166.1 554.9"/>
  </g>
  <g>
    <line class="st5" x1="45.6" y1="213" x2="17" y2="213"/>
    <polygon class="st59" points="42.7 203 60 213 42.7 223 42.7 203"/>
  </g>
  <line class="st5" x1="18" y1="213" x2="18" y2="564.9"/>
  <line class="st6" x1="374" y1="409.1" x2="374" y2="520.7"/>
  <g>
    <line class="st6" x1="342.3" y1="409.1" x2="375" y2="409.1"/>
    <polygon class="st57" points="345.2 419.1 327.9 409.1 345.2 399.2 345.2 419.1"/>
  </g>
  <g>
    <line class="st6" x1="374" y1="506.7" x2="374" y2="473.9"/>
    <polygon class="st57" points="384 503.8 374 521 364 503.8 384 503.8"/>
  </g>
  <text class="st55" transform="translate(377.1 411.2) rotate(90)"><tspan x="0" y="0">HTTPS/GRAPHQL/SSL-REST</tspan></text>
  <text class="st54" transform="translate(23.1 560.6)"><tspan x="0" y="0">HTTPS/GRAPHQL/SSL-REST</tspan></text>
  <g>
    <line class="st9" x1="342.6" y1="692" x2="342.6" y2="694"/>
    <line class="st13" x1="342.6" y1="698" x2="342.6" y2="919.4"/>
    <line class="st9" x1="342.6" y1="921.4" x2="342.6" y2="923.4"/>
  </g>
  <g>
    <line class="st9" x1="318.7" y1="921.4" x2="320.7" y2="921.4"/>
    <line class="st11" x1="324.7" y1="921.4" x2="338.6" y2="921.4"/>
    <line class="st9" x1="340.6" y1="921.4" x2="342.6" y2="921.4"/>
    <polygon class="st61" points="321.6 931.4 304.4 921.4 321.6 911.4 321.6 931.4"/>
  </g>
  <g>
    <line class="st9" x1="342.6" y1="682.3" x2="342.6" y2="684.3"/>
    <line class="st12" x1="342.6" y1="688.4" x2="342.6" y2="710.9"/>
    <line class="st9" x1="342.6" y1="713" x2="342.6" y2="715"/>
    <polygon class="st61" points="332.7 685.2 342.6 667.9 352.6 685.2 332.7 685.2"/>
  </g>
  <text class="st55" transform="translate(345.7 812) rotate(90)"><tspan x="0" y="0">HTTPS/GRAPHQL/SSL-REST</tspan></text>
  <g>
    <line class="st2" x1="628.7" y1="691.4" x2="628.7" y2="693.4"/>
    <line class="st3" x1="628.7" y1="697.4" x2="628.7" y2="918.8"/>
    <line class="st2" x1="628.7" y1="920.8" x2="628.7" y2="922.8"/>
  </g>
  <g>
    <line class="st2" x1="618.8" y1="920.8" x2="620.8" y2="920.8"/>
    <line class="st2" x1="626.7" y1="920.8" x2="628.7" y2="920.8"/>
    <polygon class="st58" points="621.7 930.8 604.4 920.8 621.7 910.8 621.7 930.8"/>
  </g>
  <g>
    <line class="st2" x1="628.7" y1="681.6" x2="628.7" y2="683.6"/>
    <line class="st1" x1="628.7" y1="687.7" x2="628.7" y2="710.3"/>
    <line class="st2" x1="628.7" y1="712.4" x2="628.7" y2="714.4"/>
    <polygon class="st58" points="618.7 684.6 628.7 667.3 638.7 684.6 618.7 684.6"/>
  </g>
  <text class="st55" transform="translate(631.3 832.1) rotate(90)"><tspan x="0" y="0">HTTPS/GRAPHQL/SSL-REST</tspan></text>
  <g>
    <line class="st10" x1="916.8" y1="588.4" x2="916.8" y2="590.4"/>
    <line class="st8" x1="916.8" y1="594.4" x2="916.8" y2="959.4"/>
    <line class="st10" x1="916.8" y1="961.3" x2="916.8" y2="963.3"/>
  </g>
  <g>
    <line class="st10" x1="836.9" y1="961.3" x2="838.9" y2="961.3"/>
    <line class="st4" x1="842.9" y1="961.3" x2="912.8" y2="961.3"/>
    <line class="st10" x1="914.8" y1="961.3" x2="916.8" y2="961.3"/>
    <polygon class="st39" points="839.8 971.3 822.5 961.3 839.8 951.4 839.8 971.3"/>
  </g>
  <g>
    <line class="st10" x1="793.6" y1="588.4" x2="795.6" y2="588.4"/>
    <line class="st7" x1="799.7" y1="588.4" x2="912.7" y2="588.4"/>
    <line class="st10" x1="914.8" y1="588.4" x2="916.8" y2="588.4"/>
    <polygon class="st39" points="796.5 598.4 779.2 588.4 796.5 578.5 796.5 598.4"/>
  </g>
  <polygon class="st53" points="40.3 234.3 57.6 244.3 40.3 254.3 40.3 234.3"/>
  <line class="st0" x1="38.5" y1="249.9" x2="38.5" y2="786.1"/>
  <polygon class="st53" points="41.1 796.1 58.3 786.1 41.1 776.2 41.1 796.1"/>
  <g>
    <line class="st16" x1="60.6" y1="933.8" x2="30.6" y2="933.8"/>
    <polygon class="st60" points="57.7 923.8 75 933.8 57.7 943.8 57.7 923.8"/>
  </g>
  <line class="st17" x1="30.6" y1="933.8" x2="30.6" y2="816.1"/>
  <g>
    <line class="st16" x1="30.6" y1="814.4" x2="95.6" y2="814.4"/>
    <polygon class="st60" points="92.7 824.4 110 814.4 92.7 804.4 92.7 824.4"/>
  </g>
  <g>
    <line class="st14" x1="53.5" y1="115.4" x2="937.2" y2="115.4"/>
    <line class="st14" x1="934.5" y1="115.4" x2="934.5" y2="326.9"/>
    <line class="st14" x1="934.5" y1="326.9" x2="428.9" y2="326.9"/>
    <line class="st14" x1="428.9" y1="326.9" x2="428.9" y2="512.3"/>
    <line class="st14" x1="428.9" y1="512.3" x2="135.9" y2="512.3"/>
    <line class="st14" x1="135.9" y1="512.3" x2="135.9" y2="709.3"/>
    <line class="st14" x1="135.9" y1="709.3" x2="327.9" y2="709.3"/>
    <line class="st14" x1="327.9" y1="709.3" x2="327.9" y2="872"/>
    <line class="st14" x1="327.9" y1="870.8" x2="658.3" y2="870.8"/>
    <line class="st14" x1="658.3" y1="872.8" x2="658.3" y2="1022.6"/>
    <line class="st14" x1="52.5" y1="1022.7" x2="658.3" y2="1022.7"/>
    <line class="st14" x1="52.5" y1="1022.7" x2="52.5" y2="620.4"/>
    <line class="st14" x1="53.5" y1="115.4" x2="53.5" y2="614.9"/>
    <text class="st31" transform="translate(432 111.1)"><tspan x="0" y="0">NETWORK LAYER</tspan></text>
  </g>
  <g>
    <line class="st15" x1="455.5" y1="344" x2="455.5" y2="518"/>
    <line class="st15" x1="455.5" y1="518" x2="168.2" y2="518"/>
    <line class="st15" x1="168.2" y1="530" x2="168.2" y2="674.3"/>
    <line class="st15" x1="168.2" y1="674.3" x2="370.3" y2="674.3"/>
    <line class="st15" x1="370.3" y1="674.3" x2="370.3" y2="838.7"/>
    <line class="st15" x1="370.3" y1="838.7" x2="605.5" y2="838.7"/>
    <line class="st15" x1="605.4" y1="838.7" x2="605.4" y2="692.3"/>
    <line class="st15" x1="605.4" y1="691.5" x2="903" y2="691.5"/>
    <line class="st15" x1="903" y1="691.5" x2="903" y2="164.7"/>
    <line class="st15" x1="903" y1="164.7" x2="633.5" y2="164.7"/>
    <line class="st15" x1="633.5" y1="339.4" x2="455.5" y2="339.4"/>
    <line class="st15" x1="633.5" y1="164.7" x2="633.5" y2="339.4"/>
    <text class="st18" transform="translate(909.2 388.9) rotate(90)"><tspan x="0" y="0">APPLICATION LAYER</tspan></text>
  </g>
</svg>